<?xml version="1.0" standalone="no"?>
<!DOCTYPE svg PUBLIC "-//W3C//DTD SVG 20010904//EN"
 "http://www.w3.org/TR/2001/REC-SVG-20010904/DTD/svg10.dtd">
<svg version="1.0" xmlns="http://www.w3.org/2000/svg"
 width="32.000000pt" height="32.000000pt" viewBox="0 0 32.000000 32.000000"
 preserveAspectRatio="xMidYMid meet">

<g transform="translate(0.000000,32.000000) scale(0.100000,-0.100000)"
fill="#000000" stroke="none">
<path d="M77 263 c-34 -31 -65 -62 -69 -67 -4 -6 -8 -45 -8 -87 0 -107 3 -109
162 -109 155 0 158 2 158 111 0 45 -5 81 -12 91 -32 40 -130 118 -148 118 -11
0 -48 -26 -83 -57z m151 -31 l62 -58 0 -59 c0 -33 -4 -66 -8 -73 -7 -9 -39
-12 -128 -10 l-119 3 -3 70 -3 70 63 57 c35 32 65 58 68 58 3 0 33 -26 68 -58z"/>
</g>
</svg>
