<?xml version="1.0" standalone="no"?>
<!DOCTYPE svg PUBLIC "-//W3C//DTD SVG 20010904//EN"
 "http://www.w3.org/TR/2001/REC-SVG-20010904/DTD/svg10.dtd">
<svg version="1.0" xmlns="http://www.w3.org/2000/svg"
 width="64.000000pt" height="64.000000pt" viewBox="0 0 64.000000 64.000000"
 preserveAspectRatio="xMidYMid meet">
<metadata>
Created by potrace 1.16, written by Peter Selinger 2001-2019
</metadata>
<g transform="translate(0.000000,64.000000) scale(0.100000,-0.100000)"
fill="#000000" stroke="none">
<path d="M207 619 c-56 -13 -90 -33 -129 -77 -62 -69 -80 -172 -45 -264 20
-51 80 -112 133 -134 41 -17 149 -18 194 -2 26 9 35 9 38 -1 9 -28 85 -113
109 -122 65 -24 137 44 115 109 -8 25 -94 104 -122 114 -10 3 -10 12 0 42 16
51 15 144 -3 187 -46 110 -175 177 -290 148z m149 -130 c78 -73 70 -185 -18
-239 -60 -36 -134 -23 -188 35 -21 23 -25 36 -25 90 0 57 3 67 30 95 40 43 60
50 123 47 38 -3 59 -10 78 -28z"/>
</g>
</svg>
